<svg width="22" height="19" viewBox="0 0 22 19" fill="none" xmlns="http://www.w3.org/2000/svg">
<path fill-rule="evenodd" clip-rule="evenodd" d="M22 9.5C22 10.2155 21.4531 10.8016 20.7594 10.8534L20.6593 10.8571L4.49033 10.8568L9.84633 16.7216C10.349 17.272 10.3157 18.1306 9.77197 18.6394C9.25688 19.1214 8.46848 19.1165 7.95954 18.6467L7.87739 18.5641L0.29367 10.2602C-0.0978901 9.83149 -0.0978901 9.16851 0.29367 8.73976L7.87739 0.435875C8.38004 -0.114498 9.22827 -0.148196 9.77197 0.36061C10.2871 0.842636 10.3441 1.63864 9.92124 2.18906L9.84633 2.27842L4.49088 8.14262L20.6593 8.14286C21.3997 8.14286 22 8.75047 22 9.5Z" fill="#06A74D"/>
</svg>
