<svg width="24" height="24" viewBox="0 0 24 24" fill="none" xmlns="http://www.w3.org/2000/svg">
<path d="M22 3C22 2.73478 21.8946 2.48043 21.7071 2.29289C21.5196 2.10536 21.2652 2 21 2H3C2.73478 2 2.48043 2.10536 2.29289 2.29289C2.10536 2.48043 2 2.73478 2 3V21C2 21.2652 2.10536 21.5196 2.29289 21.7071C2.48043 21.8946 2.73478 22 3 22H21C21.2652 22 21.5196 21.8946 21.7071 21.7071C21.8946 21.5196 22 21.2652 22 21V3ZM20 20H4V17.481L7.926 14.34L10.293 16.707C10.4805 16.8945 10.7348 16.9998 11 16.9998C11.2652 16.9998 11.5195 16.8945 11.707 16.707L16.074 12.34L20 15.481V20ZM20 12.919L16.625 10.219C16.4328 10.0652 16.1906 9.98777 15.9449 10.0014C15.6991 10.0151 15.467 10.1189 15.293 10.293L11 14.586L8.707 12.293C8.533 12.1189 8.30091 12.0151 8.05514 12.0014C7.80938 11.9878 7.56721 12.0652 7.375 12.219L4 14.919V4H20V12.919ZM6 8C6 7.60444 6.1173 7.21776 6.33706 6.88886C6.55682 6.55996 6.86918 6.30362 7.23463 6.15224C7.60009 6.00087 8.00222 5.96126 8.39018 6.03843C8.77814 6.1156 9.13451 6.30608 9.41421 6.58579C9.69392 6.86549 9.8844 7.22186 9.96157 7.60982C10.0387 7.99778 9.99913 8.39991 9.84776 8.76537C9.69638 9.13082 9.44004 9.44318 9.11114 9.66294C8.78224 9.8827 8.39556 10 8 10C7.46957 10 6.96086 9.78929 6.58579 9.41421C6.21071 9.03914 6 8.53043 6 8Z" fill="#B8B8B8"/>
</svg>
