<svg width="45" height="49" viewBox="0 0 45 49" fill="none" xmlns="http://www.w3.org/2000/svg">
<path d="M41.9626 12.5551C41.0966 10.1934 39.0484 8.33485 36.3997 7.83039L31.699 6.93653L13.6611 3.5052C9.65073 2.74282 5.78069 5.37511 5.01831 9.38549L0.131765 35.0775C-0.631877 39.0879 2.00168 42.9579 6.01206 43.7203L8.05897 44.1097L15.5095 45.527L28.7506 48.0455C31.0466 48.4829 33.2971 47.8053 34.9445 46.3943C36.1746 45.3411 37.0672 43.8796 37.3934 42.1665L37.8739 39.6416L38.3353 37.218L39.3569 31.8497L39.5529 30.818L41.9374 18.285L42.2812 16.4757C42.5404 15.1153 42.4077 13.7701 41.9639 12.5576L41.9626 12.5551ZM13.34 7.54466C14.7257 7.54466 15.9394 8.27543 16.6209 9.37159C16.9875 9.96202 17.1999 10.6587 17.1999 11.4046C17.1999 11.4665 17.1974 11.5285 17.1961 11.5892C17.0988 13.6361 15.4097 15.2645 13.34 15.2645C12.3526 15.2645 11.4498 14.8928 10.7671 14.2822C9.97693 13.5754 9.47879 12.5475 9.47879 11.4046V11.3957C9.48385 9.26791 11.2109 7.54466 13.3387 7.54466H13.34Z" fill="#374241"/>
<path d="M21.3064 11.6917L21.2811 12.6956L20.7931 32.2127L20.6527 37.8351L20.6275 38.8629L5.37991 38.4811H5.37106L5.37991 38.1044L6.04115 11.6563L6.05 11.3112H6.05758L9.4788 11.3971V11.406C9.4788 12.5489 9.97693 13.5768 10.7671 14.2835C11.4499 14.8942 12.3513 15.2659 13.34 15.2659C15.4097 15.2659 17.0975 13.6375 17.1961 11.5906L21.3077 11.693L21.3064 11.6917Z" fill="#06A74D"/>
<path d="M19.8954 7.39177C18.5464 5.51301 16.3655 4.26767 13.8748 4.20445C9.7696 4.10204 6.33953 7.25523 6.05759 11.3099C6.05001 11.4236 6.04368 11.54 6.04116 11.655C5.99311 13.5907 6.66952 15.3759 7.82257 16.7514L7.88578 16.8286C9.24618 18.4102 11.2438 19.433 13.493 19.4887C17.492 19.5898 20.8513 16.5997 21.2824 12.6943C21.3077 12.4781 21.3216 12.2594 21.3266 12.0381C21.3709 10.306 20.8348 8.69654 19.8954 7.39051V7.39177ZM13.34 15.2646C12.3526 15.2646 11.4499 14.8929 10.7671 14.2822C9.97695 13.5755 9.47881 12.5476 9.47881 11.4047V11.3958C9.48387 9.268 11.2109 7.54475 13.3387 7.54475C14.7244 7.54475 15.9382 8.27552 16.6196 9.37168C16.9863 9.96211 17.1987 10.6587 17.1987 11.4047C17.1987 11.4666 17.1961 11.5286 17.1949 11.5893C17.0975 13.6362 15.4084 15.2646 13.3387 15.2646H13.34Z" fill="#28B857"/>
<path d="M13.0226 45.9406C17.245 45.9406 20.6679 42.5177 20.6679 38.2953C20.6679 34.0729 17.245 30.65 13.0226 30.65C8.80025 30.65 5.37735 34.0729 5.37735 38.2953C5.37735 42.5177 8.80025 45.9406 13.0226 45.9406Z" fill="#06A74D"/>
<path d="M37.0142 20.0765C41.2365 20.0765 44.6594 16.6536 44.6594 12.4313C44.6594 8.20891 41.2365 4.78601 37.0142 4.78601C32.7918 4.78601 29.3689 8.20891 29.3689 12.4313C29.3689 16.6536 32.7918 20.0765 37.0142 20.0765Z" fill="#5BCD5A"/>
<path d="M42.2004 33.9727L38.3341 37.2169L35.5172 39.5811L30.5068 43.7862L30.24 43.4689L20.7956 32.2127L7.88707 16.8299L7.82385 16.7541L10.7672 14.2836C11.4499 14.8943 12.3513 15.266 13.34 15.266C15.4097 15.266 17.0975 13.6375 17.1962 11.5906C17.1974 11.5299 17.2 11.468 17.2 11.406C17.2 10.6601 16.9888 9.96347 16.6209 9.37304L19.5174 6.94177L19.8955 7.39313L29.2286 18.5152L39.5504 30.817L41.926 33.649C41.926 33.649 41.9285 33.6515 41.9298 33.6541L42.1978 33.9739L42.2004 33.9727Z" fill="#28B857"/>
<path d="M36.3529 46.5247C40.5753 46.5247 43.9982 43.1018 43.9982 38.8794C43.9982 34.657 40.5753 31.2341 36.3529 31.2341C32.1305 31.2341 28.7076 34.657 28.7076 38.8794C28.7076 43.1018 32.1305 46.5247 36.3529 46.5247Z" fill="#5BCD5A"/>
<path d="M44.6434 12.6194L29.3867 12.2385L28.7084 39.4089L43.9651 39.7897L44.6434 12.6194Z" fill="#5BCD5A"/>
<path d="M16.7895 12.6991C17.8623 11.1294 17.4595 8.9871 15.8897 7.91426C14.3199 6.84143 12.1777 7.24428 11.1049 8.81405C10.032 10.3838 10.4349 12.5261 12.0046 13.5989C13.5744 14.6717 15.7167 14.2689 16.7895 12.6991Z" fill="#374241"/>
<path d="M15.0599 3.03192L11.1762 8.71448L16.8588 12.5981L20.7424 6.91557L15.0599 3.03192Z" fill="#374241"/>
<path d="M20.8329 6.72744C21.9057 5.15767 21.5029 3.01542 19.9331 1.94259C18.3633 0.869752 16.2211 1.2726 15.1483 2.84237C14.0754 4.41214 14.4783 6.5544 16.048 7.62723C17.6178 8.70006 19.7601 8.29722 20.8329 6.72744Z" fill="#374241"/>
</svg>
