<svg width="137" height="30" viewBox="0 0 137 30" fill="none" xmlns="http://www.w3.org/2000/svg">
<path d="M23.2981 3.13443V26.005C23.2981 28.8786 19.7947 30.0989 17.7871 28.17C17.3934 27.7764 17.0392 27.1859 16.7242 26.7136C16.2519 25.9657 7.11939 12.6606 6.56829 11.8733V26.005C6.56829 27.737 5.15118 29.1542 3.41915 29.1542C1.68713 29.1542 0.27002 27.737 0.27002 26.005V3.13443C0.27002 1.44177 1.68713 0.0246582 3.41915 0.0246582C4.48199 0.0246582 5.26927 0.536393 5.93846 1.36304C6.60766 2.22905 13.2602 11.9126 17.0392 17.4236V3.13443C17.0392 1.44177 18.4169 0.0246582 20.1489 0.0246582C21.881 0.0246582 23.2981 1.44177 23.2981 3.13443Z" fill="#E5EAE4"/>
<path d="M46.2079 19.3918C46.2079 24.9422 41.681 29.4691 36.1307 29.4691C30.5803 29.4691 26.0535 24.9422 26.0535 19.3918C26.0535 13.8415 30.5803 9.31461 36.1307 9.31461C41.681 9.31461 46.2079 13.8415 46.2079 19.3918ZM32.3124 19.3918C32.3124 21.5175 34.005 23.2102 36.1307 23.2102C38.2564 23.2102 39.949 21.5175 39.949 19.3918C39.949 17.2662 38.2564 15.5735 36.1307 15.5735C34.005 15.5735 32.3124 17.2662 32.3124 19.3918Z" fill="#E5EAE4"/>
<path d="M60.6533 26.005C60.6533 27.7371 59.2362 29.1542 57.5042 29.1542H56.9137C52.2688 29.1542 48.9622 25.4933 48.9622 20.927V6.3623C48.9622 4.63028 50.3793 3.21317 52.1113 3.21317C53.8433 3.21317 55.2604 4.63028 55.2604 6.3623V9.47207H58.134C59.6692 9.47207 60.8895 10.6924 60.8895 12.2276C60.8895 13.7628 59.6692 14.9437 58.134 14.9437H55.2604V20.927C55.2604 21.9112 55.7722 22.8559 56.9137 22.8559H57.5042C59.2362 22.8559 60.6533 24.273 60.6533 26.005Z" fill="#E5EAE4"/>
<path d="M66.2036 29.1541C64.4716 29.1541 63.0544 27.737 63.0544 26.005V12.385C63.0544 10.653 64.4716 9.23587 66.2036 9.23587C67.9356 9.23587 69.3527 10.653 69.3527 12.385V26.005C69.3527 27.737 67.9356 29.1541 66.2036 29.1541ZM68.8803 5.65372C68.8803 7.14956 67.6601 8.36985 66.2036 8.36985C64.7471 8.36985 63.4874 7.14956 63.4874 5.65372C63.4874 4.15788 64.7077 2.97696 66.2036 2.97696C67.6994 2.97696 68.8803 4.19725 68.8803 5.65372Z" fill="#06A74D"/>
<path d="M81.3968 9.31459C82.7352 9.31459 84.0342 9.59014 85.2151 10.0625V6.40164C85.2151 4.70898 86.5535 3.29187 88.2855 3.29187H88.5611C90.1357 3.33123 91.4741 4.66962 91.4741 6.28355V26.2018C91.4741 27.8158 90.1357 29.1541 88.4824 29.1541C87.6164 29.1541 86.8684 28.7999 86.3173 28.2094C84.8609 28.9967 83.1682 29.4691 81.3968 29.4691C75.8465 29.4691 71.3196 24.9422 71.3196 19.3918C71.3196 13.8415 75.8465 9.31459 81.3968 9.31459ZM81.3968 23.2101C83.5225 23.2101 85.2151 21.5175 85.2151 19.3918C85.2151 17.2662 83.5225 15.5735 81.3968 15.5735C79.2711 15.5735 77.5785 17.2662 77.5785 19.3918C77.5785 21.5175 79.2711 23.2101 81.3968 23.2101Z" fill="#06A74D"/>
<path d="M110.644 21.675H100.174C101.906 24.3124 105.173 24.706 107.692 23.3283C108.952 22.541 110.605 23.0133 111.353 24.273C112.101 25.572 111.668 27.2253 110.408 27.9732C108.716 28.9573 106.787 29.4691 104.779 29.4691C100.252 29.4691 96.7095 26.9104 95.1349 23.6432C93.9147 21.1239 93.954 18.0141 95.0169 15.4554C96.3946 12.1095 99.8193 9.31461 104.267 9.31461C109.345 9.31461 113.597 13.0936 114.227 18.1322C114.463 20.494 112.888 21.675 110.644 21.675ZM108.243 17.1874C107.889 15.6916 106.236 14.2745 104.228 14.2745C102.221 14.2745 100.567 15.6916 100.213 17.1874H108.243Z" fill="#06A74D"/>
<path d="M136.546 12.4244V26.2018C136.546 27.8158 135.208 29.1542 133.594 29.1542C132.728 29.1542 131.94 28.7605 131.389 28.2094C129.894 28.9967 128.28 29.4691 126.469 29.4691C120.918 29.4691 116.392 24.9422 116.392 19.3918C116.392 13.8415 120.918 9.31461 126.469 9.31461C128.201 9.31461 129.815 9.78698 131.311 10.5743C131.862 9.86571 132.649 9.47206 133.594 9.47206C135.208 9.47206 136.546 10.8104 136.546 12.4244ZM130.287 19.3918C130.287 17.2662 128.595 15.5735 126.469 15.5735C124.343 15.5735 122.651 17.2662 122.651 19.3918C122.651 21.5175 124.343 23.2102 126.469 23.2102C128.595 23.2102 130.287 21.5175 130.287 19.3918Z" fill="#06A74D"/>
</svg>
