<svg width="47" height="50" viewBox="0 0 47 50" fill="none" xmlns="http://www.w3.org/2000/svg">
<path d="M43.5502 13.0302C42.6514 10.5791 40.5257 8.65029 37.7768 8.12675L32.8982 7.19906L14.178 3.63792C10.0158 2.8467 5.99939 5.57857 5.20817 9.74068L0.13675 36.4047C-0.655783 40.5668 2.0774 44.5832 6.23951 45.3745L8.36386 45.7786L16.0963 47.2495L29.8383 49.8633C32.2212 50.3173 34.5568 49.614 36.2665 48.1496C37.5432 47.0566 38.4696 45.5398 38.8081 43.7618L39.3067 41.1415L39.7857 38.6261L40.8459 33.0548L41.0493 31.9841L43.524 18.9768L43.8809 17.0992C44.1498 15.6873 44.0121 14.2912 43.5515 13.0328L43.5502 13.0302ZM13.8447 7.8302C15.2828 7.8302 16.5424 8.58862 17.2497 9.72625C17.6302 10.339 17.8506 11.062 17.8506 11.8362C17.8506 11.9005 17.848 11.9648 17.8467 12.0277C17.7457 14.1521 15.9926 15.8421 13.8447 15.8421C12.8199 15.8421 11.883 15.4564 11.1745 14.8226C10.3544 14.0891 9.8374 13.0223 9.8374 11.8362V11.827C9.84265 9.61865 11.635 7.8302 13.8434 7.8302H13.8447Z" fill="#E5EAE4"/>
<path d="M22.1124 12.134L22.0862 13.1758L21.5797 33.4313L21.4341 39.2664L21.4078 40.3332L5.5834 39.9369H5.57422L5.5834 39.5459L6.26965 12.0973L6.27884 11.739H6.28671L9.83736 11.8283V11.8375C9.83736 13.0236 10.3543 14.0904 11.1744 14.8239C11.883 15.4576 12.8185 15.8434 13.8446 15.8434C15.9926 15.8434 17.7443 14.1534 17.8467 12.029L22.1137 12.1353L22.1124 12.134Z" fill="#06A74D"/>
<path d="M20.648 7.67138C19.248 5.72154 16.9845 4.42909 14.3996 4.36348C10.1391 4.2572 6.57924 7.52967 6.28664 11.7377C6.27876 11.8558 6.2722 11.9765 6.26958 12.0959C6.21972 14.1048 6.92171 15.9575 8.11838 17.3852L8.18399 17.4652C9.59585 19.1067 11.669 20.1682 14.0033 20.2259C18.1536 20.3309 21.64 17.2277 22.0874 13.1745C22.1137 12.9501 22.1281 12.7231 22.1333 12.4935C22.1793 10.6959 21.6229 9.02551 20.648 7.67007V7.67138ZM13.8446 15.8421C12.8198 15.8421 11.8829 15.4563 11.1744 14.8225C10.3543 14.0891 9.83729 13.0223 9.83729 11.8361V11.8269C9.84254 9.6186 11.6349 7.83015 13.8432 7.83015C15.2814 7.83015 16.541 8.58857 17.2483 9.72619C17.6288 10.339 17.8492 11.062 17.8492 11.8361C17.8492 11.9004 17.8466 11.9647 17.8453 12.0277C17.7442 14.152 15.9912 15.8421 13.8432 15.8421H13.8446Z" fill="#28B857"/>
<path d="M13.5153 47.6785C17.8974 47.6785 21.4498 44.1261 21.4498 39.744C21.4498 35.3619 17.8974 31.8095 13.5153 31.8095C9.13321 31.8095 5.58081 35.3619 5.58081 39.744C5.58081 44.1261 9.13321 47.6785 13.5153 47.6785Z" fill="#06A74D"/>
<path d="M38.4145 20.8361C42.7966 20.8361 46.349 17.2837 46.349 12.9016C46.349 8.51947 42.7966 4.96707 38.4145 4.96707C34.0324 4.96707 30.48 8.51947 30.48 12.9016C30.48 17.2837 34.0324 20.8361 38.4145 20.8361Z" fill="#5BCD5A"/>
<path d="M43.7969 35.2578L39.7844 38.6248L36.861 41.0785L31.661 45.4427L31.3841 45.1133L21.5824 33.4313L8.18548 17.4665L8.11987 17.3878L11.1745 14.8239C11.8831 15.4576 12.8186 15.8434 13.8447 15.8434C15.9927 15.8434 17.7444 14.1534 17.8468 12.029C17.8481 11.966 17.8507 11.9017 17.8507 11.8374C17.8507 11.0633 17.6316 10.3403 17.2497 9.72753L20.2559 7.20428L20.6482 7.67272L30.3344 19.2156L41.0467 31.9827L43.5122 34.9219C43.5122 34.9219 43.5148 34.9245 43.5162 34.9272L43.7943 35.2591L43.7969 35.2578Z" fill="#28B857"/>
<path d="M37.7282 48.2847C42.1103 48.2847 45.6627 44.7323 45.6627 40.3502C45.6627 35.9681 42.1103 32.4157 37.7282 32.4157C33.3461 32.4157 29.7937 35.9681 29.7937 40.3502C29.7937 44.7323 33.3461 48.2847 37.7282 48.2847Z" fill="#5BCD5A"/>
<path d="M30.4945 12.7018L29.7905 40.9001L45.6244 41.2954L46.3284 13.0971L30.4945 12.7018Z" fill="#5BCD5A"/>
<path d="M17.4245 13.1794C18.5379 11.5503 18.1199 9.32697 16.4907 8.21355C14.8615 7.10013 12.6382 7.51821 11.5248 9.14737C10.4114 10.7765 10.8295 12.9998 12.4586 14.1133C14.0878 15.2267 16.3111 14.8086 17.4245 13.1794Z" fill="#E5EAE4"/>
<path d="M15.6295 3.14662L11.5989 9.04416L17.4964 13.0747L21.527 7.17719L15.6295 3.14662Z" fill="#E5EAE4"/>
<path d="M21.6208 6.98192C22.7342 5.35276 22.3161 3.12946 20.687 2.01604C19.0578 0.902617 16.8345 1.3207 15.7211 2.94986C14.6077 4.57902 15.0258 6.80233 16.6549 7.91575C18.2841 9.02917 20.5074 8.61108 21.6208 6.98192Z" fill="#E5EAE4"/>
</svg>
