<svg width="116" height="25" viewBox="0 0 116 25" fill="none" xmlns="http://www.w3.org/2000/svg">
<path d="M19.3353 2.61201V21.8188C19.3353 24.2334 16.3928 25.2571 14.7081 23.6367C14.3776 23.3061 14.0792 22.8104 13.8175 22.4156C13.4227 21.7867 5.75194 10.6133 5.2883 9.95228V21.8188C5.2883 23.274 4.09935 24.463 2.64415 24.463C1.18895 24.463 0 23.274 0 21.8188V2.61201C0 1.18895 1.18895 0 2.64415 0C3.53471 0 4.19575 0.43151 4.76038 1.12468C5.32043 1.84999 10.9071 9.98441 14.0838 14.6117V2.61201C14.0838 1.18895 15.2406 0 16.6958 0C18.151 0 19.3399 1.18895 19.3399 2.61201H19.3353Z" fill="#394141"/>
<path d="M38.5742 16.2643C38.5742 20.9237 34.7733 24.7247 30.1139 24.7247C25.4545 24.7247 21.6535 20.9237 21.6535 16.2643C21.6535 11.6049 25.4545 7.80396 30.1139 7.80396C34.7733 7.80396 38.5742 11.6049 38.5742 16.2643ZM26.9051 16.2643C26.9051 18.05 28.3282 19.4685 30.1093 19.4685C31.8904 19.4685 33.3135 18.0454 33.3135 16.2643C33.3135 14.4832 31.8904 13.0601 30.1093 13.0601C28.3282 13.0601 26.9051 14.4832 26.9051 16.2643Z" fill="#394141"/>
<path d="M50.7025 21.8142C50.7025 23.2694 49.5135 24.4584 48.0583 24.4584H47.5625C43.6606 24.4584 40.8879 21.3827 40.8879 17.5496V5.32042C40.8879 3.86522 42.0769 2.67627 43.5321 2.67627C44.9873 2.67627 46.1762 3.86522 46.1762 5.32042V7.93243H48.5908C49.8808 7.93243 50.9045 8.95612 50.9045 10.2461C50.9045 11.536 49.8808 12.5276 48.5908 12.5276H46.1762V17.5496C46.1762 18.3759 46.6077 19.1701 47.5625 19.1701H48.0583C49.5135 19.1701 50.7025 20.359 50.7025 21.8142Z" fill="#394141"/>
<path d="M56.8124 24.7337C55.3572 24.7337 54.1683 23.5448 54.1683 22.0896V10.6546C54.1683 9.19938 55.3572 8.01043 56.8124 8.01043C58.2676 8.01043 59.4566 9.19938 59.4566 10.6546V22.0896C59.4566 23.5448 58.2676 24.7337 56.8124 24.7337ZM59.0572 5.00363C59.0572 6.26144 58.0335 7.28513 56.8078 7.28513C55.5822 7.28513 54.5263 6.26144 54.5263 5.00363C54.5263 3.74583 55.55 2.75427 56.8078 2.75427C58.0656 2.75427 59.0572 3.77796 59.0572 5.00363Z" fill="#06A74D"/>
<path d="M69.5695 8.07476C70.6942 8.07476 71.7821 8.30429 72.7737 8.70366V5.628C72.7737 4.20494 73.8984 3.01599 75.3536 3.01599H75.5831C76.9052 3.04812 78.0298 4.17281 78.0298 5.52701V22.2503C78.0298 23.6045 76.9052 24.7292 75.5188 24.7292C74.7935 24.7292 74.1646 24.4308 73.701 23.9351C72.4799 24.5961 71.0568 24.9909 69.5695 24.9909C64.9101 24.9909 61.1091 21.1899 61.1091 16.5305C61.1091 11.8711 64.9101 8.07017 69.5695 8.07017V8.07476ZM69.5695 19.7439C71.3552 19.7439 72.7737 18.3208 72.7737 16.5397C72.7737 14.7586 71.3506 13.3355 69.5695 13.3355C67.7884 13.3355 66.3653 14.7586 66.3653 16.5397C66.3653 18.3208 67.7884 19.7439 69.5695 19.7439Z" fill="#06A74D"/>
<path d="M94.1288 18.4539H85.338C86.7932 20.6665 89.5337 20.9971 91.6499 19.8402C92.7058 19.1792 94.0967 19.574 94.7256 20.6344C95.3545 21.727 94.9919 23.1133 93.9314 23.7422C92.5084 24.5685 90.8925 25 89.2032 25C85.4022 25 82.4276 22.8516 81.1055 20.1065C80.0818 17.9903 80.1139 15.3782 81.0045 13.2299C82.1613 10.4205 85.0396 8.07471 88.7717 8.07471C93.0363 8.07471 96.6077 11.2468 97.1356 15.4792C97.333 17.4623 96.011 18.4539 94.1288 18.4539ZM92.109 14.6851C91.8106 13.4273 90.4243 12.2383 88.7396 12.2383C87.0548 12.2383 85.6639 13.4273 85.3701 14.6851H92.1136H92.109Z" fill="#06A74D"/>
<path d="M115.874 10.6867V22.2549C115.874 23.6091 114.75 24.7338 113.395 24.7338C112.67 24.7338 112.009 24.4032 111.545 23.9396C110.288 24.6006 108.933 24.9954 107.414 24.9954C102.755 24.9954 98.9536 21.1945 98.9536 16.5351C98.9536 11.8757 102.755 8.07471 107.414 8.07471C108.869 8.07471 110.223 8.46949 111.481 9.13053C111.945 8.53376 112.606 8.20324 113.4 8.20324C114.754 8.20324 115.879 9.32792 115.879 10.6821L115.874 10.6867ZM110.618 16.5397C110.618 14.7539 109.195 13.3355 107.414 13.3355C105.633 13.3355 104.21 14.7585 104.21 16.5397C104.21 18.3208 105.633 19.7438 107.414 19.7438C109.195 19.7438 110.618 18.3208 110.618 16.5397Z" fill="#06A74D"/>
</svg>
