<svg width="24" height="24" viewBox="0 0 24 24" fill="none" xmlns="http://www.w3.org/2000/svg">
<path d="M12.0003 5.99999L12.0003 6.03322M6.03323 12.0002L6 12.0002M16.243 7.75754L16.2195 7.78104M7.78118 16.2193L7.75768 16.2428M7.78118 7.78066L7.75768 7.75716M12 21.6C6.69807 21.6 2.4 17.3019 2.4 12C2.4 6.69806 6.69807 2.39999 12 2.39999C17.3019 2.39999 21.6 6.69806 21.6 12C21.6 13.6141 20.1086 14.688 18.4946 14.688L17.868 14.688C17.5444 14.688 17.2253 14.7633 16.936 14.908C15.9065 15.4227 15.4893 16.6745 16.004 17.704C16.1487 17.9933 16.224 18.3124 16.224 18.636L16.224 18.8251C16.224 19.9257 15.6064 20.9679 14.545 21.259C13.7345 21.4813 12.8811 21.6 12 21.6Z" stroke="#5BCD5A" stroke-width="2" stroke-linecap="round" stroke-linejoin="round"/>
</svg>
