<svg width="102" height="50" viewBox="0 0 102 50" fill="none" xmlns="http://www.w3.org/2000/svg">
<rect x="0.862061" width="100.862" height="50" rx="25" fill="#06A74D"/>
<path d="M15.5406 25.3639C15.8507 29.8025 19.6154 33.4136 24.1209 33.6118C27.2998 33.7497 30.1427 32.2673 31.8484 29.9317C32.5548 28.9751 32.1758 28.3373 30.9955 28.5528C30.4183 28.6562 29.8239 28.6993 29.2037 28.6734C24.991 28.5011 21.5451 24.9761 21.5279 20.8134C21.5193 19.693 21.7519 18.6329 22.174 17.6676C22.6392 16.5989 22.0792 16.0905 21.0024 16.5472C17.5909 17.9865 15.2563 21.4253 15.5406 25.3639Z" stroke="#FCFBFA" stroke-width="2" stroke-linecap="round" stroke-linejoin="round"/>
<path d="M81.0345 30.6034C84.1292 30.6034 86.6379 28.0947 86.6379 25C86.6379 21.9053 84.1292 19.3965 81.0345 19.3965C77.9398 19.3965 75.431 21.9053 75.431 25C75.431 28.0947 77.9398 30.6034 81.0345 30.6034Z" stroke="#FCFBFA" stroke-width="2" stroke-linecap="round" stroke-linejoin="round"/>
<path d="M87.1897 31.1552L87.0776 31.0431M87.0776 18.9569L87.1897 18.8448L87.0776 18.9569ZM74.8793 31.1552L74.9914 31.0431L74.8793 31.1552ZM81.0345 16.4483V16.3793V16.4483ZM81.0345 33.6207V33.5517V33.6207ZM72.4828 25H72.4138H72.4828ZM89.6552 25H89.5862H89.6552ZM74.9914 18.9569L74.8793 18.8448L74.9914 18.9569Z" stroke="#FCFBFA" stroke-width="3" stroke-linecap="round" stroke-linejoin="round"/>
<ellipse cx="24.3367" cy="25.1987" rx="17.1758" ry="17.2414" transform="rotate(45 24.3367 25.1987)" fill="#FCFBFA"/>
<path d="M17.0128 35.0719C11.4829 29.542 11.5037 20.5555 17.0592 15" stroke="#06A74D" stroke-width="4" stroke-linecap="round"/>
</svg>
