<svg width="101" height="50" viewBox="0 0 101 50" fill="none" xmlns="http://www.w3.org/2000/svg">
<rect width="100.862" height="50" rx="25" fill="#06A74D"/>
<path d="M14.6787 25.3639C14.9888 29.8025 18.7535 33.4136 23.259 33.6118C26.4379 33.7497 29.2807 32.2673 30.9865 29.9317C31.6929 28.9751 31.3138 28.3373 30.1336 28.5528C29.5564 28.6562 28.962 28.6993 28.3417 28.6734C24.1291 28.5011 20.6832 24.9761 20.6659 20.8134C20.6573 19.693 20.8899 18.6329 21.3121 17.6676C21.7773 16.5989 21.2173 16.0904 20.1404 16.5472C16.729 17.9865 14.3944 21.4253 14.6787 25.3639Z" stroke="#FCFBFA" stroke-width="2" stroke-linecap="round" stroke-linejoin="round"/>
<path d="M80.1725 30.6034C83.2672 30.6034 85.776 28.0947 85.776 25C85.776 21.9053 83.2672 19.3965 80.1725 19.3965C77.0778 19.3965 74.5691 21.9053 74.5691 25C74.5691 28.0947 77.0778 30.6034 80.1725 30.6034Z" stroke="#FCFBFA" stroke-width="2" stroke-linecap="round" stroke-linejoin="round"/>
<path d="M86.3276 31.1552L86.2156 31.0431M86.2156 18.9569L86.3276 18.8448L86.2156 18.9569ZM74.0173 31.1552L74.1293 31.0431L74.0173 31.1552ZM80.1724 16.4483V16.3793V16.4483ZM80.1724 33.6207V33.5517V33.6207ZM71.6207 25H71.5518H71.6207ZM88.7931 25H88.7242H88.7931ZM74.1293 18.9569L74.0173 18.8448L74.1293 18.9569Z" stroke="#FCFBFA" stroke-width="3" stroke-linecap="round" stroke-linejoin="round"/>
<ellipse cx="76.4746" cy="25.3366" rx="17.1758" ry="17.2414" transform="rotate(45 76.4746 25.3366)" fill="#FCFBFA"/>
<path d="M84.197 35.0719C89.7269 29.542 89.7061 20.5555 84.1506 15" stroke="#06A74D" stroke-width="4" stroke-linecap="round"/>
</svg>
